<mxfile host="app.diagrams.net" agent="Mozilla/5.0 (X11; Ubuntu; Linux x86_64; rv:132.0) Gecko/20100101 Firefox/132.0" version="26.0.9" pages="4">
  <diagram name="Page-1" id="d09etrqjj60AMPA2exS1">
    <mxGraphModel dx="2455" dy="935" grid="1" gridSize="10" guides="1" tooltips="1" connect="1" arrows="1" fold="1" page="1" pageScale="1" pageWidth="850" pageHeight="1100" math="0" shadow="0">
      <root>
        <mxCell id="0" />
        <mxCell id="1" parent="0" />
        <mxCell id="7dWYKIrh4eXeQV7LNzPy-7" style="edgeStyle=orthogonalEdgeStyle;rounded=0;orthogonalLoop=1;jettySize=auto;html=1;entryX=0.5;entryY=0;entryDx=0;entryDy=0;" edge="1" parent="1" source="7dWYKIrh4eXeQV7LNzPy-1" target="7dWYKIrh4eXeQV7LNzPy-2">
          <mxGeometry relative="1" as="geometry" />
        </mxCell>
        <mxCell id="7dWYKIrh4eXeQV7LNzPy-1" value="&lt;font style=&quot;font-size: 18px;&quot;&gt;START&lt;/font&gt;" style="ellipse;whiteSpace=wrap;html=1;" vertex="1" parent="1">
          <mxGeometry x="350" y="10" width="120" height="80" as="geometry" />
        </mxCell>
        <mxCell id="7dWYKIrh4eXeQV7LNzPy-13" value="" style="edgeStyle=orthogonalEdgeStyle;rounded=0;orthogonalLoop=1;jettySize=auto;html=1;" edge="1" parent="1" source="7dWYKIrh4eXeQV7LNzPy-2" target="7dWYKIrh4eXeQV7LNzPy-12">
          <mxGeometry relative="1" as="geometry" />
        </mxCell>
        <mxCell id="7dWYKIrh4eXeQV7LNzPy-2" value="&lt;font style=&quot;font-size: 18px;&quot;&gt;READ N&lt;/font&gt;" style="shape=parallelogram;perimeter=parallelogramPerimeter;whiteSpace=wrap;html=1;fixedSize=1;" vertex="1" parent="1">
          <mxGeometry x="295" y="130" width="230" height="60" as="geometry" />
        </mxCell>
        <mxCell id="7dWYKIrh4eXeQV7LNzPy-5" style="edgeStyle=orthogonalEdgeStyle;rounded=0;orthogonalLoop=1;jettySize=auto;html=1;exitX=1;exitY=0.5;exitDx=0;exitDy=0;entryX=0;entryY=0.5;entryDx=0;entryDy=0;" edge="1" parent="1" source="7dWYKIrh4eXeQV7LNzPy-3" target="7dWYKIrh4eXeQV7LNzPy-4">
          <mxGeometry relative="1" as="geometry" />
        </mxCell>
        <mxCell id="7dWYKIrh4eXeQV7LNzPy-28" value="" style="edgeStyle=orthogonalEdgeStyle;rounded=0;orthogonalLoop=1;jettySize=auto;html=1;" edge="1" parent="1" source="7dWYKIrh4eXeQV7LNzPy-3" target="7dWYKIrh4eXeQV7LNzPy-21">
          <mxGeometry relative="1" as="geometry" />
        </mxCell>
        <mxCell id="7dWYKIrh4eXeQV7LNzPy-3" value="&lt;font style=&quot;font-size: 18px;&quot;&gt;N &amp;lt; 0&lt;/font&gt;" style="rhombus;whiteSpace=wrap;html=1;" vertex="1" parent="1">
          <mxGeometry x="320" y="480" width="190" height="100" as="geometry" />
        </mxCell>
        <mxCell id="7dWYKIrh4eXeQV7LNzPy-4" value="WRITE&quot;ERRORE&quot;" style="shape=parallelogram;perimeter=parallelogramPerimeter;whiteSpace=wrap;html=1;fixedSize=1;" vertex="1" parent="1">
          <mxGeometry x="600" y="495" width="140" height="70" as="geometry" />
        </mxCell>
        <mxCell id="7dWYKIrh4eXeQV7LNzPy-8" value="&lt;font style=&quot;font-size: 18px;&quot;&gt;TRUE&lt;/font&gt;" style="text;html=1;align=center;verticalAlign=middle;whiteSpace=wrap;rounded=0;" vertex="1" parent="1">
          <mxGeometry x="510" y="490" width="60" height="30" as="geometry" />
        </mxCell>
        <mxCell id="7dWYKIrh4eXeQV7LNzPy-9" value="&lt;font style=&quot;font-size: 18px;&quot;&gt;END&lt;/font&gt;" style="ellipse;whiteSpace=wrap;html=1;" vertex="1" parent="1">
          <mxGeometry x="340" y="810" width="120" height="80" as="geometry" />
        </mxCell>
        <mxCell id="7dWYKIrh4eXeQV7LNzPy-11" value="" style="endArrow=classic;html=1;rounded=0;entryX=1;entryY=0.5;entryDx=0;entryDy=0;exitX=0.5;exitY=1;exitDx=0;exitDy=0;" edge="1" parent="1" source="7dWYKIrh4eXeQV7LNzPy-4" target="7dWYKIrh4eXeQV7LNzPy-9">
          <mxGeometry width="50" height="50" relative="1" as="geometry">
            <mxPoint x="340" y="470" as="sourcePoint" />
            <mxPoint x="390" y="420" as="targetPoint" />
            <Array as="points">
              <mxPoint x="670" y="850" />
            </Array>
          </mxGeometry>
        </mxCell>
        <mxCell id="7dWYKIrh4eXeQV7LNzPy-18" value="" style="edgeStyle=orthogonalEdgeStyle;rounded=0;orthogonalLoop=1;jettySize=auto;html=1;" edge="1" parent="1" source="7dWYKIrh4eXeQV7LNzPy-12" target="7dWYKIrh4eXeQV7LNzPy-17">
          <mxGeometry relative="1" as="geometry" />
        </mxCell>
        <mxCell id="7dWYKIrh4eXeQV7LNzPy-12" value="CONTATORE = 1" style="rounded=0;whiteSpace=wrap;html=1;" vertex="1" parent="1">
          <mxGeometry x="350" y="240" width="120" height="60" as="geometry" />
        </mxCell>
        <mxCell id="7dWYKIrh4eXeQV7LNzPy-30" value="" style="edgeStyle=orthogonalEdgeStyle;rounded=0;orthogonalLoop=1;jettySize=auto;html=1;" edge="1" parent="1" source="7dWYKIrh4eXeQV7LNzPy-15" target="7dWYKIrh4eXeQV7LNzPy-20">
          <mxGeometry relative="1" as="geometry" />
        </mxCell>
        <mxCell id="7dWYKIrh4eXeQV7LNzPy-15" value="&lt;font style=&quot;font-size: 18px;&quot;&gt;somma=contatore*contatore&lt;/font&gt;" style="rounded=0;whiteSpace=wrap;html=1;" vertex="1" parent="1">
          <mxGeometry x="-370" y="600" width="270" height="100" as="geometry" />
        </mxCell>
        <mxCell id="7dWYKIrh4eXeQV7LNzPy-19" value="" style="edgeStyle=orthogonalEdgeStyle;rounded=0;orthogonalLoop=1;jettySize=auto;html=1;" edge="1" parent="1" source="7dWYKIrh4eXeQV7LNzPy-17" target="7dWYKIrh4eXeQV7LNzPy-3">
          <mxGeometry relative="1" as="geometry" />
        </mxCell>
        <mxCell id="7dWYKIrh4eXeQV7LNzPy-17" value="somma = 0" style="rounded=0;whiteSpace=wrap;html=1;" vertex="1" parent="1">
          <mxGeometry x="355" y="380" width="120" height="60" as="geometry" />
        </mxCell>
        <mxCell id="7dWYKIrh4eXeQV7LNzPy-20" value="&lt;font style=&quot;font-size: 18px;&quot;&gt;contatore= contatore + 1&lt;br&gt;&lt;/font&gt;" style="rounded=0;whiteSpace=wrap;html=1;" vertex="1" parent="1">
          <mxGeometry x="-670" y="605" width="240" height="90" as="geometry" />
        </mxCell>
        <mxCell id="7dWYKIrh4eXeQV7LNzPy-29" value="" style="edgeStyle=orthogonalEdgeStyle;rounded=0;orthogonalLoop=1;jettySize=auto;html=1;" edge="1" parent="1" source="7dWYKIrh4eXeQV7LNzPy-21" target="7dWYKIrh4eXeQV7LNzPy-15">
          <mxGeometry relative="1" as="geometry" />
        </mxCell>
        <mxCell id="7dWYKIrh4eXeQV7LNzPy-31" style="edgeStyle=orthogonalEdgeStyle;rounded=0;orthogonalLoop=1;jettySize=auto;html=1;exitX=0.5;exitY=1;exitDx=0;exitDy=0;entryX=0.5;entryY=0;entryDx=0;entryDy=0;" edge="1" parent="1" source="7dWYKIrh4eXeQV7LNzPy-21" target="7dWYKIrh4eXeQV7LNzPy-25">
          <mxGeometry relative="1" as="geometry" />
        </mxCell>
        <mxCell id="7dWYKIrh4eXeQV7LNzPy-21" value="&lt;font style=&quot;font-size: 18px;&quot;&gt;n &amp;gt; contatore&lt;/font&gt;" style="rhombus;whiteSpace=wrap;html=1;" vertex="1" parent="1">
          <mxGeometry x="-40" y="520" width="270" height="130" as="geometry" />
        </mxCell>
        <mxCell id="7dWYKIrh4eXeQV7LNzPy-24" value="" style="endArrow=classic;html=1;rounded=0;entryX=0.5;entryY=0;entryDx=0;entryDy=0;exitX=0.55;exitY=-0.056;exitDx=0;exitDy=0;exitPerimeter=0;" edge="1" parent="1" source="7dWYKIrh4eXeQV7LNzPy-20" target="7dWYKIrh4eXeQV7LNzPy-21">
          <mxGeometry width="50" height="50" relative="1" as="geometry">
            <mxPoint x="-160" y="700" as="sourcePoint" />
            <mxPoint x="-110" y="650" as="targetPoint" />
            <Array as="points">
              <mxPoint x="-540" y="520" />
            </Array>
          </mxGeometry>
        </mxCell>
        <mxCell id="7dWYKIrh4eXeQV7LNzPy-25" value="write somma" style="shape=parallelogram;perimeter=parallelogramPerimeter;whiteSpace=wrap;html=1;fixedSize=1;" vertex="1" parent="1">
          <mxGeometry x="30" y="805" width="170" height="90" as="geometry" />
        </mxCell>
        <mxCell id="7dWYKIrh4eXeQV7LNzPy-27" style="edgeStyle=orthogonalEdgeStyle;rounded=0;orthogonalLoop=1;jettySize=auto;html=1;entryX=-0.007;entryY=0.599;entryDx=0;entryDy=0;entryPerimeter=0;" edge="1" parent="1" source="7dWYKIrh4eXeQV7LNzPy-25" target="7dWYKIrh4eXeQV7LNzPy-9">
          <mxGeometry relative="1" as="geometry" />
        </mxCell>
        <mxCell id="7dWYKIrh4eXeQV7LNzPy-32" value="&lt;font style=&quot;font-size: 18px;&quot;&gt;FALSE&lt;/font&gt;" style="text;html=1;align=center;verticalAlign=middle;whiteSpace=wrap;rounded=0;" vertex="1" parent="1">
          <mxGeometry x="200" y="515" width="60" height="30" as="geometry" />
        </mxCell>
        <mxCell id="7dWYKIrh4eXeQV7LNzPy-33" value="&lt;font style=&quot;font-size: 18px;&quot;&gt;TRUE&lt;/font&gt;" style="text;html=1;align=center;verticalAlign=middle;whiteSpace=wrap;rounded=0;" vertex="1" parent="1">
          <mxGeometry x="150" y="710" width="60" height="30" as="geometry" />
        </mxCell>
        <mxCell id="7dWYKIrh4eXeQV7LNzPy-35" value="&lt;font style=&quot;font-size: 18px;&quot;&gt;FALSE&lt;/font&gt;" style="text;html=1;align=center;verticalAlign=middle;whiteSpace=wrap;rounded=0;" vertex="1" parent="1">
          <mxGeometry x="-60" y="650" width="60" height="30" as="geometry" />
        </mxCell>
      </root>
    </mxGraphModel>
  </diagram>
  <diagram id="dH4BDVAQ3jGN2OKgz9mr" name="Page-2">
    <mxGraphModel dx="2555" dy="2094" grid="1" gridSize="10" guides="1" tooltips="1" connect="1" arrows="1" fold="1" page="1" pageScale="1" pageWidth="850" pageHeight="1100" math="0" shadow="0">
      <root>
        <mxCell id="0" />
        <mxCell id="1" parent="0" />
        <mxCell id="2eaj3aWzFeuO3QJnAr4F-41" value="" style="edgeStyle=orthogonalEdgeStyle;rounded=0;orthogonalLoop=1;jettySize=auto;html=1;" edge="1" parent="1" source="2eaj3aWzFeuO3QJnAr4F-1" target="2eaj3aWzFeuO3QJnAr4F-40">
          <mxGeometry relative="1" as="geometry" />
        </mxCell>
        <mxCell id="2eaj3aWzFeuO3QJnAr4F-1" value="&lt;font style=&quot;font-size: 18px;&quot;&gt;START&lt;/font&gt;" style="ellipse;whiteSpace=wrap;html=1;" vertex="1" parent="1">
          <mxGeometry x="365" y="-129" width="120" height="80" as="geometry" />
        </mxCell>
        <mxCell id="2eaj3aWzFeuO3QJnAr4F-13" value="" style="edgeStyle=orthogonalEdgeStyle;rounded=0;orthogonalLoop=1;jettySize=auto;html=1;" edge="1" parent="1" source="2eaj3aWzFeuO3QJnAr4F-2" target="2eaj3aWzFeuO3QJnAr4F-9">
          <mxGeometry relative="1" as="geometry" />
        </mxCell>
        <mxCell id="2eaj3aWzFeuO3QJnAr4F-42" style="edgeStyle=orthogonalEdgeStyle;rounded=0;orthogonalLoop=1;jettySize=auto;html=1;exitX=0.5;exitY=0;exitDx=0;exitDy=0;" edge="1" parent="1" source="2eaj3aWzFeuO3QJnAr4F-2" target="2eaj3aWzFeuO3QJnAr4F-40">
          <mxGeometry relative="1" as="geometry" />
        </mxCell>
        <mxCell id="2eaj3aWzFeuO3QJnAr4F-2" value="READ X" style="shape=parallelogram;perimeter=parallelogramPerimeter;whiteSpace=wrap;html=1;fixedSize=1;" vertex="1" parent="1">
          <mxGeometry x="365" y="152" width="120" height="60" as="geometry" />
        </mxCell>
        <mxCell id="2eaj3aWzFeuO3QJnAr4F-8" style="edgeStyle=orthogonalEdgeStyle;rounded=0;orthogonalLoop=1;jettySize=auto;html=1;exitX=1;exitY=0.5;exitDx=0;exitDy=0;entryX=0;entryY=0.25;entryDx=0;entryDy=0;" edge="1" parent="1" source="2eaj3aWzFeuO3QJnAr4F-3" target="2eaj3aWzFeuO3QJnAr4F-4">
          <mxGeometry relative="1" as="geometry" />
        </mxCell>
        <mxCell id="2eaj3aWzFeuO3QJnAr4F-34" style="edgeStyle=orthogonalEdgeStyle;rounded=0;orthogonalLoop=1;jettySize=auto;html=1;exitX=0;exitY=0.5;exitDx=0;exitDy=0;entryX=1;entryY=0.25;entryDx=0;entryDy=0;" edge="1" parent="1" source="2eaj3aWzFeuO3QJnAr4F-3" target="2eaj3aWzFeuO3QJnAr4F-5">
          <mxGeometry relative="1" as="geometry" />
        </mxCell>
        <mxCell id="2eaj3aWzFeuO3QJnAr4F-3" value="x &amp;lt; 0" style="rhombus;whiteSpace=wrap;html=1;" vertex="1" parent="1">
          <mxGeometry x="350" y="350" width="150" height="110" as="geometry" />
        </mxCell>
        <mxCell id="2eaj3aWzFeuO3QJnAr4F-37" value="" style="edgeStyle=orthogonalEdgeStyle;rounded=0;orthogonalLoop=1;jettySize=auto;html=1;" edge="1" parent="1" source="2eaj3aWzFeuO3QJnAr4F-4" target="2eaj3aWzFeuO3QJnAr4F-36">
          <mxGeometry relative="1" as="geometry" />
        </mxCell>
        <mxCell id="2eaj3aWzFeuO3QJnAr4F-4" value="WRITE &quot;Errorre&quot;" style="shape=parallelogram;perimeter=parallelogramPerimeter;whiteSpace=wrap;html=1;fixedSize=1;" vertex="1" parent="1">
          <mxGeometry x="620" y="385.5" width="140" height="65" as="geometry" />
        </mxCell>
        <mxCell id="2eaj3aWzFeuO3QJnAr4F-33" value="" style="edgeStyle=orthogonalEdgeStyle;rounded=0;orthogonalLoop=1;jettySize=auto;html=1;" edge="1" parent="1" source="2eaj3aWzFeuO3QJnAr4F-5" target="2eaj3aWzFeuO3QJnAr4F-11">
          <mxGeometry relative="1" as="geometry" />
        </mxCell>
        <mxCell id="2eaj3aWzFeuO3QJnAr4F-5" value="read n" style="shape=parallelogram;perimeter=parallelogramPerimeter;whiteSpace=wrap;html=1;fixedSize=1;" vertex="1" parent="1">
          <mxGeometry x="106" y="388" width="120" height="60" as="geometry" />
        </mxCell>
        <mxCell id="2eaj3aWzFeuO3QJnAr4F-14" value="" style="edgeStyle=orthogonalEdgeStyle;rounded=0;orthogonalLoop=1;jettySize=auto;html=1;" edge="1" parent="1" source="2eaj3aWzFeuO3QJnAr4F-9" target="2eaj3aWzFeuO3QJnAr4F-3">
          <mxGeometry relative="1" as="geometry" />
        </mxCell>
        <mxCell id="2eaj3aWzFeuO3QJnAr4F-9" value="cont = 0" style="rounded=0;whiteSpace=wrap;html=1;" vertex="1" parent="1">
          <mxGeometry x="365" y="240" width="120" height="60" as="geometry" />
        </mxCell>
        <mxCell id="2eaj3aWzFeuO3QJnAr4F-32" style="edgeStyle=orthogonalEdgeStyle;rounded=0;orthogonalLoop=1;jettySize=auto;html=1;" edge="1" parent="1" source="2eaj3aWzFeuO3QJnAr4F-11" target="2eaj3aWzFeuO3QJnAr4F-12">
          <mxGeometry relative="1" as="geometry" />
        </mxCell>
        <mxCell id="2eaj3aWzFeuO3QJnAr4F-39" style="edgeStyle=orthogonalEdgeStyle;rounded=0;orthogonalLoop=1;jettySize=auto;html=1;exitX=1;exitY=0.5;exitDx=0;exitDy=0;" edge="1" parent="1" source="2eaj3aWzFeuO3QJnAr4F-11" target="2eaj3aWzFeuO3QJnAr4F-35">
          <mxGeometry relative="1" as="geometry" />
        </mxCell>
        <mxCell id="2eaj3aWzFeuO3QJnAr4F-11" value="cont=cont + 1" style="rounded=0;whiteSpace=wrap;html=1;" vertex="1" parent="1">
          <mxGeometry x="106" y="509" width="120" height="60" as="geometry" />
        </mxCell>
        <mxCell id="2eaj3aWzFeuO3QJnAr4F-24" value="" style="edgeStyle=orthogonalEdgeStyle;rounded=0;orthogonalLoop=1;jettySize=auto;html=1;" edge="1" parent="1" source="2eaj3aWzFeuO3QJnAr4F-12" target="2eaj3aWzFeuO3QJnAr4F-18">
          <mxGeometry relative="1" as="geometry" />
        </mxCell>
        <mxCell id="2eaj3aWzFeuO3QJnAr4F-12" value="cont=10" style="rhombus;whiteSpace=wrap;html=1;" vertex="1" parent="1">
          <mxGeometry x="81" y="606" width="170" height="100" as="geometry" />
        </mxCell>
        <mxCell id="2eaj3aWzFeuO3QJnAr4F-27" style="edgeStyle=orthogonalEdgeStyle;rounded=0;orthogonalLoop=1;jettySize=auto;html=1;exitX=0;exitY=0.5;exitDx=0;exitDy=0;entryX=1;entryY=0.5;entryDx=0;entryDy=0;" edge="1" parent="1" source="2eaj3aWzFeuO3QJnAr4F-18" target="2eaj3aWzFeuO3QJnAr4F-22">
          <mxGeometry relative="1" as="geometry" />
        </mxCell>
        <mxCell id="2eaj3aWzFeuO3QJnAr4F-28" style="edgeStyle=orthogonalEdgeStyle;rounded=0;orthogonalLoop=1;jettySize=auto;html=1;exitX=1;exitY=0.5;exitDx=0;exitDy=0;entryX=0;entryY=0.5;entryDx=0;entryDy=0;" edge="1" parent="1" source="2eaj3aWzFeuO3QJnAr4F-18" target="2eaj3aWzFeuO3QJnAr4F-19">
          <mxGeometry relative="1" as="geometry">
            <mxPoint x="370" y="819.75" as="targetPoint" />
          </mxGeometry>
        </mxCell>
        <mxCell id="2eaj3aWzFeuO3QJnAr4F-18" value="X%2=0" style="rhombus;whiteSpace=wrap;html=1;" vertex="1" parent="1">
          <mxGeometry x="101" y="770" width="130" height="100" as="geometry" />
        </mxCell>
        <mxCell id="2eaj3aWzFeuO3QJnAr4F-29" style="edgeStyle=orthogonalEdgeStyle;rounded=0;orthogonalLoop=1;jettySize=auto;html=1;exitX=1;exitY=0.5;exitDx=0;exitDy=0;entryX=0;entryY=0.5;entryDx=0;entryDy=0;" edge="1" parent="1" source="2eaj3aWzFeuO3QJnAr4F-19" target="2eaj3aWzFeuO3QJnAr4F-20">
          <mxGeometry relative="1" as="geometry" />
        </mxCell>
        <mxCell id="2eaj3aWzFeuO3QJnAr4F-19" value="N &amp;gt; x/2 " style="rhombus;whiteSpace=wrap;html=1;" vertex="1" parent="1">
          <mxGeometry x="380" y="780" width="110" height="80" as="geometry" />
        </mxCell>
        <mxCell id="2eaj3aWzFeuO3QJnAr4F-20" value="somma= somma + N" style="rounded=0;whiteSpace=wrap;html=1;" vertex="1" parent="1">
          <mxGeometry x="610" y="789" width="120" height="60" as="geometry" />
        </mxCell>
        <mxCell id="2eaj3aWzFeuO3QJnAr4F-21" value="somma = 0" style="rounded=0;whiteSpace=wrap;html=1;" vertex="1" parent="1">
          <mxGeometry x="365" y="-10" width="120" height="60" as="geometry" />
        </mxCell>
        <mxCell id="2eaj3aWzFeuO3QJnAr4F-25" style="edgeStyle=orthogonalEdgeStyle;rounded=0;orthogonalLoop=1;jettySize=auto;html=1;exitX=0;exitY=0.5;exitDx=0;exitDy=0;entryX=1;entryY=0.5;entryDx=0;entryDy=0;" edge="1" parent="1" source="2eaj3aWzFeuO3QJnAr4F-22" target="2eaj3aWzFeuO3QJnAr4F-23">
          <mxGeometry relative="1" as="geometry" />
        </mxCell>
        <mxCell id="2eaj3aWzFeuO3QJnAr4F-22" value="n&amp;lt;x" style="rhombus;whiteSpace=wrap;html=1;" vertex="1" parent="1">
          <mxGeometry x="-148" y="774" width="120" height="90" as="geometry" />
        </mxCell>
        <mxCell id="2eaj3aWzFeuO3QJnAr4F-23" value="risult= risult + n" style="rounded=0;whiteSpace=wrap;html=1;" vertex="1" parent="1">
          <mxGeometry x="-392" y="790" width="120" height="60" as="geometry" />
        </mxCell>
        <mxCell id="2eaj3aWzFeuO3QJnAr4F-30" value="" style="endArrow=classic;html=1;rounded=0;exitX=0.5;exitY=0;exitDx=0;exitDy=0;" edge="1" parent="1">
          <mxGeometry width="50" height="50" relative="1" as="geometry">
            <mxPoint x="-338" y="790" as="sourcePoint" />
            <mxPoint x="81" y="656" as="targetPoint" />
            <Array as="points">
              <mxPoint x="-338" y="656" />
            </Array>
          </mxGeometry>
        </mxCell>
        <mxCell id="2eaj3aWzFeuO3QJnAr4F-31" value="" style="endArrow=classic;html=1;rounded=0;entryX=1;entryY=0.5;entryDx=0;entryDy=0;exitX=0.5;exitY=0;exitDx=0;exitDy=0;" edge="1" parent="1" source="2eaj3aWzFeuO3QJnAr4F-20" target="2eaj3aWzFeuO3QJnAr4F-12">
          <mxGeometry width="50" height="50" relative="1" as="geometry">
            <mxPoint x="430" y="770" as="sourcePoint" />
            <mxPoint x="220" y="520" as="targetPoint" />
            <Array as="points">
              <mxPoint x="680" y="660" />
              <mxPoint x="440" y="656" />
            </Array>
          </mxGeometry>
        </mxCell>
        <mxCell id="2eaj3aWzFeuO3QJnAr4F-38" style="edgeStyle=orthogonalEdgeStyle;rounded=0;orthogonalLoop=1;jettySize=auto;html=1;exitX=1;exitY=0.5;exitDx=0;exitDy=0;entryX=0;entryY=0.5;entryDx=0;entryDy=0;" edge="1" parent="1" source="2eaj3aWzFeuO3QJnAr4F-35" target="2eaj3aWzFeuO3QJnAr4F-36">
          <mxGeometry relative="1" as="geometry" />
        </mxCell>
        <mxCell id="2eaj3aWzFeuO3QJnAr4F-35" value="Write risult somma" style="shape=parallelogram;perimeter=parallelogramPerimeter;whiteSpace=wrap;html=1;fixedSize=1;" vertex="1" parent="1">
          <mxGeometry x="360" y="510" width="120" height="60" as="geometry" />
        </mxCell>
        <mxCell id="2eaj3aWzFeuO3QJnAr4F-36" value="END" style="ellipse;whiteSpace=wrap;html=1;" vertex="1" parent="1">
          <mxGeometry x="631" y="501" width="120" height="80" as="geometry" />
        </mxCell>
        <mxCell id="2eaj3aWzFeuO3QJnAr4F-40" value="risult = 0" style="rounded=0;whiteSpace=wrap;html=1;" vertex="1" parent="1">
          <mxGeometry x="365" y="70" width="120" height="60" as="geometry" />
        </mxCell>
      </root>
    </mxGraphModel>
  </diagram>
  <diagram id="PzEJPwaP61HEZ3UojMur" name="Page-3">
    <mxGraphModel dx="1605" dy="2035" grid="1" gridSize="10" guides="1" tooltips="1" connect="1" arrows="1" fold="1" page="1" pageScale="1" pageWidth="850" pageHeight="1100" math="0" shadow="0">
      <root>
        <mxCell id="0" />
        <mxCell id="1" parent="0" />
        <mxCell id="i_dXRuQCZKe_aOG74gRG-27" value="" style="edgeStyle=orthogonalEdgeStyle;rounded=0;orthogonalLoop=1;jettySize=auto;html=1;" edge="1" parent="1" source="i_dXRuQCZKe_aOG74gRG-1" target="i_dXRuQCZKe_aOG74gRG-19">
          <mxGeometry relative="1" as="geometry" />
        </mxCell>
        <mxCell id="i_dXRuQCZKe_aOG74gRG-1" value="START" style="ellipse;whiteSpace=wrap;html=1;" vertex="1" parent="1">
          <mxGeometry x="358" y="-260" width="120" height="80" as="geometry" />
        </mxCell>
        <mxCell id="i_dXRuQCZKe_aOG74gRG-2" value="read n" style="shape=parallelogram;perimeter=parallelogramPerimeter;whiteSpace=wrap;html=1;fixedSize=1;" vertex="1" parent="1">
          <mxGeometry x="359" y="160" width="120" height="60" as="geometry" />
        </mxCell>
        <mxCell id="i_dXRuQCZKe_aOG74gRG-6" style="edgeStyle=orthogonalEdgeStyle;rounded=0;orthogonalLoop=1;jettySize=auto;html=1;exitX=0;exitY=0.5;exitDx=0;exitDy=0;entryX=0.5;entryY=0;entryDx=0;entryDy=0;" edge="1" parent="1" source="i_dXRuQCZKe_aOG74gRG-3" target="i_dXRuQCZKe_aOG74gRG-4">
          <mxGeometry relative="1" as="geometry" />
        </mxCell>
        <mxCell id="i_dXRuQCZKe_aOG74gRG-15" value="" style="edgeStyle=orthogonalEdgeStyle;rounded=0;orthogonalLoop=1;jettySize=auto;html=1;" edge="1" parent="1" source="i_dXRuQCZKe_aOG74gRG-3" target="i_dXRuQCZKe_aOG74gRG-7">
          <mxGeometry relative="1" as="geometry" />
        </mxCell>
        <mxCell id="i_dXRuQCZKe_aOG74gRG-3" value="n == &quot;si&quot;" style="rhombus;whiteSpace=wrap;html=1;" vertex="1" parent="1">
          <mxGeometry x="318" y="238" width="200" height="120" as="geometry" />
        </mxCell>
        <mxCell id="i_dXRuQCZKe_aOG74gRG-21" value="" style="edgeStyle=orthogonalEdgeStyle;rounded=0;orthogonalLoop=1;jettySize=auto;html=1;" edge="1" parent="1" source="i_dXRuQCZKe_aOG74gRG-4" target="i_dXRuQCZKe_aOG74gRG-20">
          <mxGeometry relative="1" as="geometry" />
        </mxCell>
        <mxCell id="i_dXRuQCZKe_aOG74gRG-4" value="n == &quot;no&quot;" style="rhombus;whiteSpace=wrap;html=1;" vertex="1" parent="1">
          <mxGeometry x="110" y="400" width="210" height="130" as="geometry" />
        </mxCell>
        <mxCell id="i_dXRuQCZKe_aOG74gRG-25" value="" style="edgeStyle=orthogonalEdgeStyle;rounded=0;orthogonalLoop=1;jettySize=auto;html=1;" edge="1" parent="1" source="i_dXRuQCZKe_aOG74gRG-7" target="i_dXRuQCZKe_aOG74gRG-24">
          <mxGeometry relative="1" as="geometry" />
        </mxCell>
        <mxCell id="i_dXRuQCZKe_aOG74gRG-7" value="read voto" style="shape=parallelogram;perimeter=parallelogramPerimeter;whiteSpace=wrap;html=1;fixedSize=1;" vertex="1" parent="1">
          <mxGeometry x="580" y="268" width="120" height="60" as="geometry" />
        </mxCell>
        <mxCell id="i_dXRuQCZKe_aOG74gRG-8" value="cont = 0" style="rounded=0;whiteSpace=wrap;html=1;" vertex="1" parent="1">
          <mxGeometry x="358" y="63" width="120" height="60" as="geometry" />
        </mxCell>
        <mxCell id="i_dXRuQCZKe_aOG74gRG-17" value="" style="edgeStyle=orthogonalEdgeStyle;rounded=0;orthogonalLoop=1;jettySize=auto;html=1;" edge="1" parent="1" source="i_dXRuQCZKe_aOG74gRG-9" target="i_dXRuQCZKe_aOG74gRG-10">
          <mxGeometry relative="1" as="geometry" />
        </mxCell>
        <mxCell id="i_dXRuQCZKe_aOG74gRG-9" value="cont =cont+ 1" style="rounded=0;whiteSpace=wrap;html=1;" vertex="1" parent="1">
          <mxGeometry x="584" y="485" width="120" height="60" as="geometry" />
        </mxCell>
        <mxCell id="i_dXRuQCZKe_aOG74gRG-10" value="somma = somma + voto" style="rounded=0;whiteSpace=wrap;html=1;" vertex="1" parent="1">
          <mxGeometry x="674" y="590" width="140" height="70" as="geometry" />
        </mxCell>
        <mxCell id="i_dXRuQCZKe_aOG74gRG-29" value="" style="edgeStyle=orthogonalEdgeStyle;rounded=0;orthogonalLoop=1;jettySize=auto;html=1;" edge="1" parent="1" source="i_dXRuQCZKe_aOG74gRG-18" target="i_dXRuQCZKe_aOG74gRG-8">
          <mxGeometry relative="1" as="geometry" />
        </mxCell>
        <mxCell id="i_dXRuQCZKe_aOG74gRG-18" value="somma = 0" style="rounded=0;whiteSpace=wrap;html=1;" vertex="1" parent="1">
          <mxGeometry x="365" y="-30" width="120" height="60" as="geometry" />
        </mxCell>
        <mxCell id="i_dXRuQCZKe_aOG74gRG-28" value="" style="edgeStyle=orthogonalEdgeStyle;rounded=0;orthogonalLoop=1;jettySize=auto;html=1;" edge="1" parent="1" source="i_dXRuQCZKe_aOG74gRG-19" target="i_dXRuQCZKe_aOG74gRG-18">
          <mxGeometry relative="1" as="geometry" />
        </mxCell>
        <mxCell id="i_dXRuQCZKe_aOG74gRG-19" value="media= 0" style="rounded=0;whiteSpace=wrap;html=1;" vertex="1" parent="1">
          <mxGeometry x="365" y="-130" width="120" height="60" as="geometry" />
        </mxCell>
        <mxCell id="i_dXRuQCZKe_aOG74gRG-38" value="" style="edgeStyle=orthogonalEdgeStyle;rounded=0;orthogonalLoop=1;jettySize=auto;html=1;" edge="1" parent="1" source="i_dXRuQCZKe_aOG74gRG-20" target="i_dXRuQCZKe_aOG74gRG-37">
          <mxGeometry relative="1" as="geometry" />
        </mxCell>
        <mxCell id="i_dXRuQCZKe_aOG74gRG-20" value="media = somma/cont" style="rounded=0;whiteSpace=wrap;html=1;" vertex="1" parent="1">
          <mxGeometry x="156" y="585" width="120" height="60" as="geometry" />
        </mxCell>
        <mxCell id="i_dXRuQCZKe_aOG74gRG-22" value="END" style="ellipse;whiteSpace=wrap;html=1;" vertex="1" parent="1">
          <mxGeometry x="156" y="850" width="120" height="80" as="geometry" />
        </mxCell>
        <mxCell id="i_dXRuQCZKe_aOG74gRG-26" value="" style="edgeStyle=orthogonalEdgeStyle;rounded=0;orthogonalLoop=1;jettySize=auto;html=1;" edge="1" parent="1" source="i_dXRuQCZKe_aOG74gRG-24" target="i_dXRuQCZKe_aOG74gRG-9">
          <mxGeometry relative="1" as="geometry" />
        </mxCell>
        <mxCell id="i_dXRuQCZKe_aOG74gRG-24" value="voto &amp;gt;0" style="rhombus;whiteSpace=wrap;html=1;" vertex="1" parent="1">
          <mxGeometry x="552" y="359" width="180" height="98" as="geometry" />
        </mxCell>
        <mxCell id="i_dXRuQCZKe_aOG74gRG-31" value="" style="endArrow=classic;html=1;rounded=0;exitX=0.5;exitY=1;exitDx=0;exitDy=0;entryX=0.5;entryY=0;entryDx=0;entryDy=0;" edge="1" parent="1" source="i_dXRuQCZKe_aOG74gRG-8" target="i_dXRuQCZKe_aOG74gRG-2">
          <mxGeometry width="50" height="50" relative="1" as="geometry">
            <mxPoint x="370" y="230" as="sourcePoint" />
            <mxPoint x="420" y="180" as="targetPoint" />
          </mxGeometry>
        </mxCell>
        <mxCell id="i_dXRuQCZKe_aOG74gRG-32" value="" style="endArrow=classic;html=1;rounded=0;entryX=0.5;entryY=0;entryDx=0;entryDy=0;exitX=0.5;exitY=1;exitDx=0;exitDy=0;" edge="1" parent="1" source="i_dXRuQCZKe_aOG74gRG-2" target="i_dXRuQCZKe_aOG74gRG-3">
          <mxGeometry width="50" height="50" relative="1" as="geometry">
            <mxPoint x="370" y="230" as="sourcePoint" />
            <mxPoint x="420" y="180" as="targetPoint" />
          </mxGeometry>
        </mxCell>
        <mxCell id="i_dXRuQCZKe_aOG74gRG-33" value="" style="endArrow=classic;html=1;rounded=0;entryX=0.967;entryY=0.4;entryDx=0;entryDy=0;entryPerimeter=0;" edge="1" parent="1" target="i_dXRuQCZKe_aOG74gRG-2">
          <mxGeometry width="50" height="50" relative="1" as="geometry">
            <mxPoint x="830" y="620" as="sourcePoint" />
            <mxPoint x="467.5" y="200" as="targetPoint" />
            <Array as="points">
              <mxPoint x="840" y="180" />
            </Array>
          </mxGeometry>
        </mxCell>
        <mxCell id="i_dXRuQCZKe_aOG74gRG-34" value="" style="endArrow=classic;html=1;rounded=0;exitX=1;exitY=0.75;exitDx=0;exitDy=0;" edge="1" parent="1" source="i_dXRuQCZKe_aOG74gRG-10">
          <mxGeometry width="50" height="50" relative="1" as="geometry">
            <mxPoint x="640" y="490" as="sourcePoint" />
            <mxPoint x="830" y="620" as="targetPoint" />
          </mxGeometry>
        </mxCell>
        <mxCell id="i_dXRuQCZKe_aOG74gRG-35" value="True" style="text;html=1;align=center;verticalAlign=middle;whiteSpace=wrap;rounded=0;" vertex="1" parent="1">
          <mxGeometry x="518" y="260" width="60" height="30" as="geometry" />
        </mxCell>
        <mxCell id="i_dXRuQCZKe_aOG74gRG-36" value="False" style="text;html=1;align=center;verticalAlign=middle;whiteSpace=wrap;rounded=0;" vertex="1" parent="1">
          <mxGeometry x="232" y="256" width="60" height="30" as="geometry" />
        </mxCell>
        <mxCell id="i_dXRuQCZKe_aOG74gRG-39" value="" style="edgeStyle=orthogonalEdgeStyle;rounded=0;orthogonalLoop=1;jettySize=auto;html=1;" edge="1" parent="1" source="i_dXRuQCZKe_aOG74gRG-37" target="i_dXRuQCZKe_aOG74gRG-22">
          <mxGeometry relative="1" as="geometry" />
        </mxCell>
        <mxCell id="i_dXRuQCZKe_aOG74gRG-37" value="write media" style="shape=parallelogram;perimeter=parallelogramPerimeter;whiteSpace=wrap;html=1;fixedSize=1;" vertex="1" parent="1">
          <mxGeometry x="156" y="710" width="120" height="60" as="geometry" />
        </mxCell>
        <mxCell id="i_dXRuQCZKe_aOG74gRG-40" value="" style="endArrow=classic;html=1;rounded=0;entryX=0;entryY=0.5;entryDx=0;entryDy=0;exitX=0.059;exitY=0.428;exitDx=0;exitDy=0;exitPerimeter=0;" edge="1" parent="1" source="i_dXRuQCZKe_aOG74gRG-4" target="i_dXRuQCZKe_aOG74gRG-2">
          <mxGeometry width="50" height="50" relative="1" as="geometry">
            <mxPoint x="550" y="390" as="sourcePoint" />
            <mxPoint x="600" y="340" as="targetPoint" />
            <Array as="points">
              <mxPoint x="90" y="200" />
            </Array>
          </mxGeometry>
        </mxCell>
      </root>
    </mxGraphModel>
  </diagram>
  <diagram id="RaYV9UpRoTOPi5rhK_VD" name="Page-4">
    <mxGraphModel dx="2455" dy="935" grid="1" gridSize="10" guides="1" tooltips="1" connect="1" arrows="1" fold="1" page="1" pageScale="1" pageWidth="850" pageHeight="1100" math="0" shadow="0">
      <root>
        <mxCell id="0" />
        <mxCell id="1" parent="0" />
        <mxCell id="yhS5vJlPORnGJmqhqlog-3" value="" style="edgeStyle=orthogonalEdgeStyle;rounded=0;orthogonalLoop=1;jettySize=auto;html=1;" edge="1" parent="1" source="yhS5vJlPORnGJmqhqlog-1" target="yhS5vJlPORnGJmqhqlog-2">
          <mxGeometry relative="1" as="geometry" />
        </mxCell>
        <mxCell id="yhS5vJlPORnGJmqhqlog-1" value="START" style="ellipse;whiteSpace=wrap;html=1;" vertex="1" parent="1">
          <mxGeometry x="370" y="85" width="120" height="80" as="geometry" />
        </mxCell>
        <mxCell id="yhS5vJlPORnGJmqhqlog-5" value="" style="edgeStyle=orthogonalEdgeStyle;rounded=0;orthogonalLoop=1;jettySize=auto;html=1;" edge="1" parent="1" source="yhS5vJlPORnGJmqhqlog-2" target="yhS5vJlPORnGJmqhqlog-4">
          <mxGeometry relative="1" as="geometry" />
        </mxCell>
        <mxCell id="yhS5vJlPORnGJmqhqlog-2" value="Read a" style="shape=parallelogram;perimeter=parallelogramPerimeter;whiteSpace=wrap;html=1;fixedSize=1;" vertex="1" parent="1">
          <mxGeometry x="370" y="220" width="120" height="60" as="geometry" />
        </mxCell>
        <mxCell id="yhS5vJlPORnGJmqhqlog-21" value="" style="edgeStyle=orthogonalEdgeStyle;rounded=0;orthogonalLoop=1;jettySize=auto;html=1;" edge="1" parent="1" source="yhS5vJlPORnGJmqhqlog-4" target="yhS5vJlPORnGJmqhqlog-9">
          <mxGeometry relative="1" as="geometry" />
        </mxCell>
        <mxCell id="yhS5vJlPORnGJmqhqlog-4" value="Read b" style="shape=parallelogram;perimeter=parallelogramPerimeter;whiteSpace=wrap;html=1;fixedSize=1;" vertex="1" parent="1">
          <mxGeometry x="370" y="320" width="120" height="60" as="geometry" />
        </mxCell>
        <mxCell id="yhS5vJlPORnGJmqhqlog-23" value="" style="edgeStyle=orthogonalEdgeStyle;rounded=0;orthogonalLoop=1;jettySize=auto;html=1;" edge="1" parent="1" source="yhS5vJlPORnGJmqhqlog-6" target="yhS5vJlPORnGJmqhqlog-7">
          <mxGeometry relative="1" as="geometry" />
        </mxCell>
        <mxCell id="yhS5vJlPORnGJmqhqlog-33" value="" style="edgeStyle=orthogonalEdgeStyle;rounded=0;orthogonalLoop=1;jettySize=auto;html=1;" edge="1" parent="1" source="yhS5vJlPORnGJmqhqlog-6" target="yhS5vJlPORnGJmqhqlog-32">
          <mxGeometry relative="1" as="geometry" />
        </mxCell>
        <mxCell id="yhS5vJlPORnGJmqhqlog-6" value="&lt;div&gt;a &amp;gt; 0&lt;/div&gt;&lt;div&gt;and&lt;/div&gt;&lt;div&gt;b &amp;gt; 0&lt;br&gt;&lt;/div&gt;" style="rhombus;whiteSpace=wrap;html=1;" vertex="1" parent="1">
          <mxGeometry x="375" y="520" width="110" height="110" as="geometry" />
        </mxCell>
        <mxCell id="yhS5vJlPORnGJmqhqlog-14" value="" style="edgeStyle=orthogonalEdgeStyle;rounded=0;orthogonalLoop=1;jettySize=auto;html=1;" edge="1" parent="1" source="yhS5vJlPORnGJmqhqlog-7" target="yhS5vJlPORnGJmqhqlog-13">
          <mxGeometry relative="1" as="geometry" />
        </mxCell>
        <mxCell id="yhS5vJlPORnGJmqhqlog-37" value="" style="edgeStyle=orthogonalEdgeStyle;rounded=0;orthogonalLoop=1;jettySize=auto;html=1;" edge="1" parent="1" source="yhS5vJlPORnGJmqhqlog-7" target="yhS5vJlPORnGJmqhqlog-35">
          <mxGeometry relative="1" as="geometry" />
        </mxCell>
        <mxCell id="yhS5vJlPORnGJmqhqlog-7" value="a &amp;lt; b" style="rhombus;whiteSpace=wrap;html=1;" vertex="1" parent="1">
          <mxGeometry x="374" y="655" width="110" height="100" as="geometry" />
        </mxCell>
        <mxCell id="yhS5vJlPORnGJmqhqlog-22" value="" style="edgeStyle=orthogonalEdgeStyle;rounded=0;orthogonalLoop=1;jettySize=auto;html=1;" edge="1" parent="1" source="yhS5vJlPORnGJmqhqlog-9" target="yhS5vJlPORnGJmqhqlog-6">
          <mxGeometry relative="1" as="geometry" />
        </mxCell>
        <mxCell id="yhS5vJlPORnGJmqhqlog-9" value="somma = 0" style="rounded=0;whiteSpace=wrap;html=1;" vertex="1" parent="1">
          <mxGeometry x="370" y="420" width="120" height="60" as="geometry" />
        </mxCell>
        <mxCell id="yhS5vJlPORnGJmqhqlog-16" value="" style="edgeStyle=orthogonalEdgeStyle;rounded=0;orthogonalLoop=1;jettySize=auto;html=1;" edge="1" parent="1" source="yhS5vJlPORnGJmqhqlog-11" target="yhS5vJlPORnGJmqhqlog-15">
          <mxGeometry relative="1" as="geometry" />
        </mxCell>
        <mxCell id="yhS5vJlPORnGJmqhqlog-11" value="somma= somma + a" style="rounded=0;whiteSpace=wrap;html=1;" vertex="1" parent="1">
          <mxGeometry x="327" y="1051" width="205" height="60" as="geometry" />
        </mxCell>
        <mxCell id="yhS5vJlPORnGJmqhqlog-20" value="" style="edgeStyle=orthogonalEdgeStyle;rounded=0;orthogonalLoop=1;jettySize=auto;html=1;" edge="1" parent="1" source="yhS5vJlPORnGJmqhqlog-12" target="yhS5vJlPORnGJmqhqlog-11">
          <mxGeometry relative="1" as="geometry" />
        </mxCell>
        <mxCell id="yhS5vJlPORnGJmqhqlog-25" value="" style="edgeStyle=orthogonalEdgeStyle;rounded=0;orthogonalLoop=1;jettySize=auto;html=1;" edge="1" parent="1" source="yhS5vJlPORnGJmqhqlog-12" target="yhS5vJlPORnGJmqhqlog-24">
          <mxGeometry relative="1" as="geometry" />
        </mxCell>
        <mxCell id="yhS5vJlPORnGJmqhqlog-12" value="i &amp;gt; b" style="rhombus;whiteSpace=wrap;html=1;" vertex="1" parent="1">
          <mxGeometry x="389" y="910" width="80" height="80" as="geometry" />
        </mxCell>
        <mxCell id="yhS5vJlPORnGJmqhqlog-19" value="" style="edgeStyle=orthogonalEdgeStyle;rounded=0;orthogonalLoop=1;jettySize=auto;html=1;" edge="1" parent="1" source="yhS5vJlPORnGJmqhqlog-13" target="yhS5vJlPORnGJmqhqlog-12">
          <mxGeometry relative="1" as="geometry" />
        </mxCell>
        <mxCell id="yhS5vJlPORnGJmqhqlog-13" value="i=a" style="rounded=0;whiteSpace=wrap;html=1;" vertex="1" parent="1">
          <mxGeometry x="369" y="801" width="120" height="60" as="geometry" />
        </mxCell>
        <mxCell id="yhS5vJlPORnGJmqhqlog-15" value="i ++ 1" style="rounded=0;whiteSpace=wrap;html=1;" vertex="1" parent="1">
          <mxGeometry x="140" y="910" width="120" height="60" as="geometry" />
        </mxCell>
        <mxCell id="yhS5vJlPORnGJmqhqlog-17" value="" style="endArrow=classic;html=1;rounded=0;entryX=0;entryY=0.5;entryDx=0;entryDy=0;exitX=0.5;exitY=0;exitDx=0;exitDy=0;" edge="1" parent="1" source="yhS5vJlPORnGJmqhqlog-15" target="yhS5vJlPORnGJmqhqlog-13">
          <mxGeometry width="50" height="50" relative="1" as="geometry">
            <mxPoint x="400" y="940" as="sourcePoint" />
            <mxPoint x="450" y="890" as="targetPoint" />
            <Array as="points">
              <mxPoint x="200" y="830" />
            </Array>
          </mxGeometry>
        </mxCell>
        <mxCell id="yhS5vJlPORnGJmqhqlog-27" value="" style="edgeStyle=orthogonalEdgeStyle;rounded=0;orthogonalLoop=1;jettySize=auto;html=1;" edge="1" parent="1" source="yhS5vJlPORnGJmqhqlog-24" target="yhS5vJlPORnGJmqhqlog-26">
          <mxGeometry relative="1" as="geometry" />
        </mxCell>
        <mxCell id="yhS5vJlPORnGJmqhqlog-24" value="Write somma" style="shape=parallelogram;perimeter=parallelogramPerimeter;whiteSpace=wrap;html=1;fixedSize=1;" vertex="1" parent="1">
          <mxGeometry x="601" y="920" width="120" height="60" as="geometry" />
        </mxCell>
        <mxCell id="yhS5vJlPORnGJmqhqlog-26" value="END" style="ellipse;whiteSpace=wrap;html=1;" vertex="1" parent="1">
          <mxGeometry x="601" y="1195" width="120" height="80" as="geometry" />
        </mxCell>
        <mxCell id="yhS5vJlPORnGJmqhqlog-28" value="TRUE" style="text;html=1;align=center;verticalAlign=middle;whiteSpace=wrap;rounded=0;" vertex="1" parent="1">
          <mxGeometry x="510" y="900" width="60" height="30" as="geometry" />
        </mxCell>
        <mxCell id="yhS5vJlPORnGJmqhqlog-29" value="FALSE" style="text;html=1;align=center;verticalAlign=middle;whiteSpace=wrap;rounded=0;" vertex="1" parent="1">
          <mxGeometry x="440" y="990" width="60" height="30" as="geometry" />
        </mxCell>
        <mxCell id="yhS5vJlPORnGJmqhqlog-30" value="TRUE" style="text;html=1;align=center;verticalAlign=middle;whiteSpace=wrap;rounded=0;" vertex="1" parent="1">
          <mxGeometry x="450" y="755" width="60" height="30" as="geometry" />
        </mxCell>
        <mxCell id="yhS5vJlPORnGJmqhqlog-31" value="TRUE" style="text;html=1;align=center;verticalAlign=middle;whiteSpace=wrap;rounded=0;" vertex="1" parent="1">
          <mxGeometry x="450" y="630" width="60" height="30" as="geometry" />
        </mxCell>
        <mxCell id="yhS5vJlPORnGJmqhqlog-41" style="edgeStyle=orthogonalEdgeStyle;rounded=0;orthogonalLoop=1;jettySize=auto;html=1;exitX=0.75;exitY=1;exitDx=0;exitDy=0;entryX=0.5;entryY=0;entryDx=0;entryDy=0;" edge="1" parent="1" source="yhS5vJlPORnGJmqhqlog-32" target="yhS5vJlPORnGJmqhqlog-40">
          <mxGeometry relative="1" as="geometry" />
        </mxCell>
        <mxCell id="yhS5vJlPORnGJmqhqlog-32" value="Write &quot;i due valori devono essere maggiori di 0&quot;" style="shape=parallelogram;perimeter=parallelogramPerimeter;whiteSpace=wrap;html=1;fixedSize=1;" vertex="1" parent="1">
          <mxGeometry x="510" y="527" width="350" height="90" as="geometry" />
        </mxCell>
        <mxCell id="yhS5vJlPORnGJmqhqlog-45" style="edgeStyle=orthogonalEdgeStyle;rounded=0;orthogonalLoop=1;jettySize=auto;html=1;" edge="1" parent="1" source="yhS5vJlPORnGJmqhqlog-35">
          <mxGeometry relative="1" as="geometry">
            <mxPoint x="60" y="1230" as="targetPoint" />
          </mxGeometry>
        </mxCell>
        <mxCell id="yhS5vJlPORnGJmqhqlog-35" value="&lt;font style=&quot;font-size: 18px;&quot;&gt;Write &quot; a deve essere maggiore di b&quot;&lt;/font&gt;" style="shape=parallelogram;perimeter=parallelogramPerimeter;whiteSpace=wrap;html=1;fixedSize=1;" vertex="1" parent="1">
          <mxGeometry x="-165" y="660" width="450" height="90" as="geometry" />
        </mxCell>
        <mxCell id="yhS5vJlPORnGJmqhqlog-38" value="FALSE" style="text;html=1;align=center;verticalAlign=middle;whiteSpace=wrap;rounded=0;" vertex="1" parent="1">
          <mxGeometry x="314" y="660" width="60" height="30" as="geometry" />
        </mxCell>
        <mxCell id="yhS5vJlPORnGJmqhqlog-39" value="FALSE" style="text;html=1;align=center;verticalAlign=middle;whiteSpace=wrap;rounded=0;" vertex="1" parent="1">
          <mxGeometry x="469" y="539" width="60" height="30" as="geometry" />
        </mxCell>
        <mxCell id="yhS5vJlPORnGJmqhqlog-42" value="" style="edgeStyle=orthogonalEdgeStyle;rounded=0;orthogonalLoop=1;jettySize=auto;html=1;" edge="1" parent="1" source="yhS5vJlPORnGJmqhqlog-40" target="yhS5vJlPORnGJmqhqlog-26">
          <mxGeometry relative="1" as="geometry" />
        </mxCell>
        <mxCell id="yhS5vJlPORnGJmqhqlog-40" value="" style="ellipse;whiteSpace=wrap;html=1;aspect=fixed;" vertex="1" parent="1">
          <mxGeometry x="790" y="1225" width="10" height="10" as="geometry" />
        </mxCell>
        <mxCell id="yhS5vJlPORnGJmqhqlog-46" style="edgeStyle=orthogonalEdgeStyle;rounded=0;orthogonalLoop=1;jettySize=auto;html=1;exitX=1;exitY=0.5;exitDx=0;exitDy=0;entryX=0;entryY=0.5;entryDx=0;entryDy=0;" edge="1" parent="1" target="yhS5vJlPORnGJmqhqlog-26">
          <mxGeometry relative="1" as="geometry">
            <mxPoint x="75.99999999998363" y="1234.5" as="sourcePoint" />
            <mxPoint x="580" y="1220" as="targetPoint" />
          </mxGeometry>
        </mxCell>
        <mxCell id="yhS5vJlPORnGJmqhqlog-44" value="" style="ellipse;whiteSpace=wrap;html=1;aspect=fixed;" vertex="1" parent="1">
          <mxGeometry x="50" y="1228" width="25" height="25" as="geometry" />
        </mxCell>
      </root>
    </mxGraphModel>
  </diagram>
</mxfile>
